# xmcd
#
# Track frame offsets:
#	150
#	13934
#	28696
#	40893
#	53231
#	67149
#	80710
#	95044
#	109794
#	123195
#	136165
#	149303
#	162239
#	177470
#	190982
#	203771
#	219811
#	232130
#	246325
#	257864
#
# Disc length: 3624
#
# Revision: 1
# Processed by: cddbd v1.5.1PL0 Copyright (c) Steve Scherf et al.
# Submitted via: CDex 1.51
# Normalized: r0:DSETVAR1
#
DISCID=2d0e2614
DTITLE=Various Artist - Presenting ... the best of THE BLUES
DYEAR=2003
DGENRE=Blues
TTITLE0=Tampa Red - Seminole Blues
TTITLE1=Jimmy Rushing - Boogie Woogie
TTITLE2=Jimmy Rushing - Jimmy's Blues
TTITLE3=John Lee Hooker - High Priced Woman
TTITLE4=Josh White - I'm Gonna Move to the Outskirts of Town
TTITLE5=Josh White - Hadr Time Blues
TTITLE6=Josh White - Strange Fruit
TTITLE7=Josh White - The Lass with the Delicate Air
TTITLE8=Jimmy Rushing - Don't Cry, Baby
TTITLE9=T-Bone Walker - I Wish You Were Mine
TTITLE10=T-Bone Walker - I Got The Blues
TTITLE11=Huddie Ledbetter - On A Christmas Day
TTITLE12=Lena Horne - Stormy Weather
TTITLE13=Bessie Smith - Nobody Knows You When You're Down And Out
TTITLE14=Bessie Smith - I'm Wild About That Thing
TTITLE15=Bessie Smith - Gimme A Pigfoot (And A Bottle Of Beer)
TTITLE16=Billie Holiday - Am I Blue?
TTITLE17=Billie Holiday - Gloomy Sunday
TTITLE18=Billie Holiday - Me, Myself and I
TTITLE19=Maxine Sullivan - My Blue Heaven
EXTD=YEAR: 2003
EXTT0=
EXTT1=
EXTT2=
EXTT3=
EXTT4=
EXTT5=
EXTT6=
EXTT7=
EXTT8=
EXTT9=
EXTT10=
EXTT11=
EXTT12=
EXTT13=
EXTT14=
EXTT15=
EXTT16=
EXTT17=
EXTT18=
EXTT19=
PLAYORDER=
